<?xml version="1.0" encoding="UTF-8"?>
<svg xmlns="http://www.w3.org/2000/svg" xmlns:xlink="http://www.w3.org/1999/xlink" width="300px" height="300px" viewBox="0 0 300 450" version="1.1">
<g id="surface1">
<path style=" stroke:none;fill-rule:nonzero;fill:rgb(10.196079%,73.725492%,99.607843%);fill-opacity:1;" d="M 150 225 C 150 184 183.238281 150.761719 224.238281 150.761719 C 265.234375 150.761719 298.472656 184 298.472656 225 C 298.472656 266 265.234375 299.238281 224.238281 299.238281 C 183.238281 299.238281 150 266 150 225 Z M 150 225 "/>
<path style=" stroke:none;fill-rule:nonzero;fill:rgb(3.921569%,81.176472%,51.372552%);fill-opacity:1;" d="M 1.527344 373.472656 C 1.527344 332.472656 34.765625 299.238281 75.761719 299.238281 L 150 299.238281 L 150 373.472656 C 150 414.472656 116.761719 447.710938 75.761719 447.710938 C 34.765625 447.710938 1.527344 414.472656 1.527344 373.472656 Z M 1.527344 373.472656 "/>
<path style=" stroke:none;fill-rule:nonzero;fill:rgb(100%,44.705883%,38.431373%);fill-opacity:1;" d="M 150 2.292969 L 150 150.761719 L 224.238281 150.761719 C 265.238281 150.761719 298.472656 117.527344 298.472656 76.527344 C 298.472656 35.527344 265.238281 2.292969 224.238281 2.292969 Z M 150 2.292969 "/>
<path style=" stroke:none;fill-rule:nonzero;fill:rgb(94.901961%,30.588236%,11.764706%);fill-opacity:1;" d="M 1.527344 76.527344 C 1.527344 117.527344 34.765625 150.761719 75.761719 150.761719 L 150 150.761719 L 150 2.292969 L 75.761719 2.292969 C 34.765625 2.292969 1.527344 35.527344 1.527344 76.527344 Z M 1.527344 76.527344 "/>
<path style=" stroke:none;fill-rule:nonzero;fill:rgb(63.529414%,34.901962%,100%);fill-opacity:1;" d="M 1.527344 225 C 1.527344 266 34.765625 299.238281 75.761719 299.238281 L 150 299.238281 L 150 150.761719 L 75.761719 150.761719 C 34.765625 150.761719 1.527344 184 1.527344 225 Z M 1.527344 225 "/>
</g>
</svg>
