<?xml version="1.0" encoding="UTF-8"?>
<svg xmlns="http://www.w3.org/2000/svg" xmlns:xlink="http://www.w3.org/1999/xlink" width="300px" height="300px" viewBox="0 0 300 300" version="1.1">
<g id="surface1">
<path style=" stroke:none;fill-rule:nonzero;fill:rgb(100%,56.862748%,0%);fill-opacity:1;" d="M 106.960938 280.25 C 118.582031 284.929688 131.195312 287.703125 144.433594 288.167969 C 162.355469 288.792969 179.394531 285.085938 194.628906 278.050781 C 176.363281 270.871094 159.816406 260.375 145.695312 247.324219 C 136.542969 261.980469 123.003906 273.554688 106.960938 280.25 Z M 106.960938 280.25 "/>
<path style=" stroke:none;fill-rule:nonzero;fill:rgb(100%,76.862746%,0%);fill-opacity:1;" d="M 145.695312 247.328125 C 113.460938 217.519531 93.90625 174.371094 95.558594 127.046875 C 95.613281 125.507812 95.695312 123.972656 95.789062 122.4375 C 90.015625 120.945312 83.988281 120.035156 77.789062 119.816406 C 68.910156 119.507812 60.3125 120.609375 52.195312 122.894531 C 43.59375 137.964844 38.398438 155.261719 37.753906 173.785156 C 36.082031 221.589844 65.011719 263.363281 106.957031 280.253906 C 123.003906 273.558594 136.539062 262 145.695312 247.328125 Z M 145.695312 247.328125 "/>
<path style=" stroke:none;fill-rule:nonzero;fill:rgb(100%,56.862748%,0%);fill-opacity:1;" d="M 145.695312 247.328125 C 153.1875 235.335938 157.734375 221.277344 158.261719 206.128906 C 159.652344 166.28125 132.867188 132 95.789062 122.4375 C 95.695312 123.972656 95.613281 125.507812 95.558594 127.042969 C 93.90625 174.371094 113.460938 217.515625 145.695312 247.328125 Z M 145.695312 247.328125 "/>
<path style=" stroke:none;fill-rule:nonzero;fill:rgb(86.666667%,17.254902%,0%);fill-opacity:1;" d="M 154.117188 10.429688 C 133 27.34375 116.324219 49.652344 106.238281 75.347656 C 100.460938 90.066406 96.832031 105.875 95.773438 122.445312 C 132.847656 132.011719 159.636719 166.289062 158.246094 206.136719 C 157.714844 221.285156 153.160156 235.332031 145.675781 247.339844 C 159.796875 260.402344 176.34375 270.886719 194.613281 278.0625 C 231.28125 261.113281 257.296875 224.640625 258.804688 181.5 C 259.777344 153.546875 249.039062 128.636719 233.867188 107.609375 C 217.839844 85.371094 154.117188 10.429688 154.117188 10.429688 Z M 154.117188 10.429688 "/>
</g>
</svg>
