<?xml version="1.0" encoding="UTF-8"?>
<svg xmlns="http://www.w3.org/2000/svg" xmlns:xlink="http://www.w3.org/1999/xlink" width="300px" height="300px" viewBox="0 0 300 642" version="1.1">
<g id="surface1">
<path style=" stroke:none;fill-rule:nonzero;fill:rgb(0%,40.784314%,29.019609%);fill-opacity:1;" d="M 205.75 71.445312 C 178.75 39.46875 155.5 6.996094 151 0.25 C 150.5 -0.25 149.75 -0.25 149.25 0.25 C 144.5 6.996094 121.25 39.46875 94.25 71.445312 C -137.25 366.464844 130.75 565.558594 130.75 565.558594 L 133 567.058594 C 135 597.785156 140 642 140 642 L 160 642 C 160 642 165 598.035156 167 567.058594 L 169.25 565.308594 C 169.25 565.558594 437.25 366.464844 205.75 71.445312 Z M 150 561.0625 C 150 561.0625 138 550.820312 134.75 545.574219 L 134.75 545.074219 L 149.25 223.824219 C 149.25 222.828125 150.75 222.828125 150.75 223.824219 L 165 545.074219 L 165 545.574219 C 161.75 550.820312 150 561.0625 150 561.0625 Z M 150 561.0625 "/>
</g>
</svg>
