<?xml version="1.0" encoding="UTF-8"?>
<svg xmlns="http://www.w3.org/2000/svg" xmlns:xlink="http://www.w3.org/1999/xlink" width="300px" height="300px" viewBox="0 0 300 338" version="1.1">
<g id="surface1">
<path style=" stroke:none;fill-rule:nonzero;fill:rgb(37.254903%,62.7451%,30.588236%);fill-opacity:1;" d="M 150.527344 335.886719 C 145.960938 335.886719 141.695312 334.671875 137.734375 332.542969 L 97.210938 308.519531 C 91.121094 305.171875 94.167969 303.953125 95.992188 303.347656 C 104.21875 300.609375 105.742188 300 114.273438 295.132812 C 115.1875 294.523438 116.402344 294.828125 117.316406 295.4375 L 148.398438 313.988281 C 149.617188 314.597656 151.140625 314.597656 152.054688 313.988281 L 273.617188 243.734375 C 274.839844 243.128906 275.445312 241.914062 275.445312 240.394531 L 275.445312 100.191406 C 275.445312 98.671875 274.839844 97.453125 273.621094 96.84375 L 152.054688 26.894531 C 150.835938 26.289062 149.308594 26.289062 148.398438 26.894531 L 26.832031 96.84375 C 25.605469 97.453125 24.996094 98.976562 24.996094 100.191406 L 24.996094 240.394531 C 24.996094 241.605469 25.609375 243.128906 26.828125 243.734375 L 60.039062 262.894531 C 78.011719 272.023438 89.285156 261.375 89.285156 250.734375 L 89.285156 112.355469 C 89.285156 110.53125 90.808594 108.703125 92.941406 108.703125 L 108.480469 108.703125 C 110.308594 108.703125 112.136719 110.226562 112.136719 112.355469 L 112.136719 250.734375 C 112.136719 274.761719 99.039062 288.75 76.183594 288.75 C 69.175781 288.75 63.691406 288.75 48.15625 281.144531 L 16.160156 262.894531 C 8.246094 258.308594 3.371094 249.847656 3.371094 240.699219 L 3.371094 100.496094 C 3.371094 91.34375 8.246094 82.882812 16.167969 78.292969 L 137.730469 8.039062 C 145.351562 3.78125 155.707031 3.78125 163.328125 8.039062 L 284.890625 78.292969 C 292.8125 82.882812 297.6875 91.34375 297.6875 100.496094 L 297.6875 240.699219 C 297.6875 249.851562 292.808594 258.308594 284.890625 262.894531 L 163.328125 333.148438 C 159.671875 334.671875 155.101562 335.886719 150.527344 335.886719 Z M 150.527344 335.886719 "/>
<path style=" stroke:none;fill-rule:nonzero;fill:rgb(37.254903%,62.7451%,30.588236%);fill-opacity:1;" d="M 188.3125 239.480469 C 134.988281 239.480469 124.023438 215.148438 124.023438 194.46875 C 124.023438 192.644531 125.542969 190.816406 127.675781 190.816406 L 143.523438 190.816406 C 145.351562 190.816406 146.875 192.035156 146.875 193.859375 C 149.3125 209.976562 156.316406 217.886719 188.617188 217.886719 C 214.207031 217.886719 225.171875 212.109375 225.171875 198.421875 C 225.171875 190.519531 222.132812 184.734375 182.214844 180.785156 C 149.003906 177.4375 128.289062 170.136719 128.289062 143.679688 C 128.289062 119.046875 149.007812 104.449219 183.738281 104.449219 C 222.738281 104.449219 241.929688 117.832031 244.375 147.027344 C 244.375 147.9375 244.066406 148.851562 243.457031 149.761719 C 242.847656 150.371094 241.933594 150.980469 241.019531 150.980469 L 224.867188 150.980469 C 223.261719 150.925781 221.890625 149.804688 221.519531 148.242188 C 217.863281 131.511719 208.417969 126.039062 183.433594 126.039062 C 155.402344 126.039062 152.054688 135.773438 152.054688 143.070312 C 152.054688 151.894531 156.011719 154.628906 193.796875 159.492188 C 231.269531 164.359375 248.9375 171.359375 248.9375 197.511719 C 248.9375 224.277344 226.699219 239.480469 188.3125 239.480469 Z M 188.3125 239.480469 "/>
</g>
</svg>
