<?xml version="1.0" encoding="UTF-8"?>
<svg xmlns="http://www.w3.org/2000/svg" xmlns:xlink="http://www.w3.org/1999/xlink" width="300px" height="300px" viewBox="0 0 300 272" version="1.1">
<g id="surface1">
<path style=" stroke:none;fill-rule:nonzero;fill:rgb(3.137255%,49.411765%,64.313728%);fill-opacity:1;" d="M 176.910156 135.933594 C 176.910156 121.109375 164.863281 109.09375 150 109.09375 C 135.136719 109.09375 123.089844 121.109375 123.089844 135.933594 C 123.089844 150.753906 135.136719 162.769531 150 162.769531 C 164.863281 162.769531 176.910156 150.753906 176.910156 135.933594 Z M 176.910156 135.933594 "/>
<path style="fill:none;stroke-width:1;stroke-linecap:butt;stroke-linejoin:miter;stroke:rgb(3.137255%,49.411765%,64.313728%);stroke-opacity:1;stroke-miterlimit:4;" d="M 9.999972 0.0000513839 C 9.999972 -2.485376 5.522863 -4.500091 -0.000000000000001776 -4.500091 C -5.522863 -4.500091 -9.999972 -2.485376 -9.999972 0.0000513839 C -9.999972 2.485187 -5.522863 4.499903 -0.000000000000001776 4.499903 C 5.522863 4.499903 9.999972 2.485187 9.999972 0.0000513839 Z M 9.999972 0.0000513839 " transform="matrix(13.454725,0,0,13.418845,150,135.932904)"/>
<path style="fill:none;stroke-width:1;stroke-linecap:butt;stroke-linejoin:miter;stroke:rgb(3.137255%,49.411765%,64.313728%);stroke-opacity:1;stroke-miterlimit:4;" d="M 10.000059 0.0000498538 C 10.000074 -2.485404 5.522888 -4.500067 0.0000713745 -4.499872 C -5.522852 -4.500075 -10.0001 -2.485201 -9.99997 0.00000153008 C -9.999985 2.485455 -5.522799 4.500118 0.000017625 4.499924 C 5.522941 4.500127 9.999937 2.485106 10.000059 0.0000498538 Z M 10.000059 0.0000498538 " transform="matrix(6.727362,11.621061,-11.652133,6.709423,150,135.932904)"/>
<path style="fill:none;stroke-width:1;stroke-linecap:butt;stroke-linejoin:miter;stroke:rgb(3.137255%,49.411765%,64.313728%);stroke-opacity:1;stroke-miterlimit:4;" d="M 10.000059 -0.0000498538 C 9.999937 -2.485106 5.522941 -4.500127 0.000017625 -4.499924 C -5.522799 -4.500118 -9.999985 -2.485455 -9.99997 -0.00000153008 C -10.0001 2.485201 -5.522852 4.500075 0.0000713745 4.499872 C 5.522888 4.500067 10.000074 2.485404 10.000059 -0.0000498538 Z M 10.000059 -0.0000498538 " transform="matrix(-6.727362,11.621061,-11.652133,-6.709423,150,135.932904)"/>
</g>
</svg>
