<?xml version="1.0" encoding="UTF-8"?>
<svg xmlns="http://www.w3.org/2000/svg" xmlns:xlink="http://www.w3.org/1999/xlink" width="300px" height="300px" viewBox="0 0 300 338" version="1.1">
<g id="surface1">
<path style=" stroke:none;fill-rule:evenodd;fill:rgb(58.431375%,74.901962%,27.843139%);fill-opacity:1;" d="M 211.101562 332.03125 L 210.347656 42.414062 C 208.394531 40.464844 204.582031 41.050781 203.089844 41.488281 L 193.160156 44.558594 C 191.9375 40.535156 190.34375 36.628906 188.410156 32.890625 C 181.363281 19.46875 171.066406 12.371094 158.601562 12.351562 L 158.566406 12.351562 C 157.730469 12.351562 156.910156 12.429688 156.078125 12.496094 L 155.980469 12.507812 C 155.621094 12.0625 155.246094 11.632812 154.859375 11.210938 C 149.4375 5.417969 142.472656 2.589844 134.128906 2.828125 C 118.046875 3.292969 102.027344 14.902344 89.03125 35.519531 C 79.886719 50.035156 72.949219 68.257812 70.964844 82.367188 L 39.289062 92.167969 C 29.972656 95.09375 29.679688 95.382812 28.453125 104.160156 C 27.53125 110.804688 3.136719 299.304688 3.136719 299.304688 L 207.601562 334.628906 L 211.101562 332.023438 Z M 144.117188 16.070312 C 141.398438 14.28125 138.214844 13.453125 134.4375 13.53125 C 109.605469 14.246094 87.949219 53 82.421875 78.820312 L 106.210938 71.460938 L 110.457031 70.148438 C 113.574219 53.75 121.394531 36.734375 131.621094 25.785156 C 135.199219 21.859375 139.421875 18.574219 144.105469 16.070312 Z M 122.214844 66.507812 L 156.359375 55.945312 C 156.464844 47.058594 155.496094 33.925781 151.046875 24.65625 C 146.304688 26.605469 142.316406 30.023438 139.453125 33.085938 C 131.777344 41.324219 125.515625 53.886719 122.226562 66.507812 Z M 167.050781 52.640625 L 182.921875 47.726562 C 180.386719 39.496094 174.367188 25.707031 162.164062 23.390625 C 165.957031 33.171875 166.933594 44.5 167.050781 52.640625 Z M 167.050781 52.640625 "/>
<path style=" stroke:none;fill-rule:nonzero;fill:rgb(36.862746%,55.686277%,24.313726%);fill-opacity:1;" d="M 256.917969 63.960938 C 255.695312 63.863281 232.066406 63.496094 232.066406 63.496094 C 232.066406 63.496094 212.292969 44.316406 210.339844 42.355469 C 209.582031 41.660156 208.621094 41.21875 207.601562 41.101562 L 207.601562 334.582031 L 296.195312 312.574219 C 296.195312 312.574219 260.042969 68.332031 259.808594 66.664062 C 259.578125 65.203125 258.382812 64.085938 256.90625 63.960938 Z M 256.917969 63.960938 "/>
<path style=" stroke:none;fill-rule:nonzero;fill:rgb(100%,100%,100%);fill-opacity:1;" d="M 158.496094 109.53125 L 148.199219 148.003906 C 148.199219 148.003906 136.722656 142.78125 123.105469 143.640625 C 103.152344 144.894531 102.9375 157.480469 103.140625 160.636719 C 104.226562 177.828125 149.527344 181.59375 152.070312 221.890625 C 154.074219 253.597656 135.242188 275.296875 108.105469 276.996094 C 75.542969 279.054688 57.609375 259.855469 57.609375 259.855469 L 64.507812 230.515625 C 64.507812 230.515625 82.558594 244.121094 96.996094 243.207031 C 106.441406 242.617188 109.808594 234.949219 109.472656 229.519531 C 108.046875 207.085938 71.15625 208.402344 68.824219 171.53125 C 66.871094 140.484375 87.261719 109.046875 132.269531 106.210938 C 149.613281 105.109375 158.496094 109.539062 158.496094 109.539062 "/>
</g>
</svg>
