<?xml version="1.0" encoding="UTF-8"?>
<svg xmlns="http://www.w3.org/2000/svg" xmlns:xlink="http://www.w3.org/1999/xlink" width="300px" height="300px" viewBox="0 0 300 338" version="1.1">
<g id="surface1">
<path style=" stroke:none;fill-rule:nonzero;fill:rgb(100%,100%,100%);fill-opacity:1;" d="M 162.960938 60.53125 L 216.554688 91.324219 C 218.65625 92.371094 218.65625 95.523438 216.554688 96.570312 L 152.800781 133.3125 C 150.699219 134.359375 148.597656 134.359375 146.847656 133.3125 L 83.445312 96.570312 C 81.34375 95.523438 81.34375 92.371094 83.445312 91.324219 L 136.6875 60.53125 L 136.6875 0 L 0.078125 78.726562 L 0.078125 236.53125 L 0.078125 235.832031 L 0.078125 236.53125 L 52.621094 206.4375 L 52.621094 144.507812 C 52.621094 142.40625 55.074219 140.660156 57.175781 142.058594 L 120.925781 178.796875 C 123.027344 179.847656 124.078125 181.945312 124.078125 184.046875 L 124.078125 257.523438 C 124.078125 259.625 121.628906 261.371094 119.527344 259.972656 L 65.933594 229.183594 L 13.390625 259.273438 L 150 338 L 286.609375 259.273438 L 234.066406 229.183594 L 180.472656 259.972656 C 178.722656 261.023438 175.921875 259.625 175.921875 257.523438 L 175.921875 184.046875 C 175.921875 181.945312 176.972656 179.847656 179.074219 178.796875 L 242.824219 142.058594 C 244.574219 141.007812 247.378906 142.40625 247.378906 144.507812 L 247.378906 206.4375 L 299.921875 236.53125 L 299.921875 78.726562 L 162.960938 0 Z M 162.960938 60.53125 "/>
</g>
</svg>
