<?xml version="1.0" encoding="UTF-8"?>
<svg xmlns="http://www.w3.org/2000/svg" xmlns:xlink="http://www.w3.org/1999/xlink" width="300px" height="300px" viewBox="0 0 300 300" version="1.1">
<g id="surface1">
<path style=" stroke:none;fill-rule:nonzero;fill:rgb(12.54902%,45.490196%,60.000002%);fill-opacity:1;" d="M 239.480469 102.199219 C 247.375 116.605469 251.871094 133.136719 251.871094 150.722656 C 251.871094 188.039062 231.648438 220.617188 201.578125 238.148438 L 232.46875 148.828125 C 238.238281 134.398438 240.160156 122.859375 240.160156 112.601562 C 240.160156 108.875 239.914062 105.417969 239.480469 102.199219 M 164.664062 103.300781 C 170.753906 102.980469 176.242188 102.339844 176.242188 102.339844 C 181.691406 101.695312 181.046875 93.683594 175.59375 94.003906 C 175.59375 94.003906 159.210938 95.289062 148.636719 95.289062 C 138.699219 95.289062 121.996094 94.003906 121.996094 94.003906 C 116.542969 93.683594 115.902344 102.015625 121.355469 102.339844 C 121.355469 102.339844 126.515625 102.980469 131.964844 103.300781 L 147.722656 146.476562 L 125.585938 212.863281 L 88.753906 103.300781 C 94.847656 102.980469 100.328125 102.339844 100.328125 102.339844 C 105.773438 101.695312 105.132812 93.683594 99.683594 94.003906 C 99.683594 94.003906 83.300781 95.289062 72.726562 95.289062 C 70.828125 95.289062 68.589844 95.242188 66.214844 95.167969 C 84.300781 67.710938 115.386719 49.578125 150.726562 49.578125 C 177.054688 49.578125 201.03125 59.644531 219.027344 76.132812 C 218.589844 76.105469 218.164062 76.050781 217.714844 76.050781 C 207.78125 76.050781 200.730469 84.707031 200.730469 94.003906 C 200.730469 102.339844 205.539062 109.390625 210.667969 117.726562 C 214.511719 124.460938 219.007812 133.117188 219.007812 145.621094 C 219.007812 154.277344 215.675781 164.324219 211.308594 178.320312 L 201.21875 212.027344 Z M 150.726562 251.875 C 140.796875 251.875 131.214844 250.417969 122.148438 247.753906 L 152.5 159.570312 L 183.589844 244.746094 C 183.792969 245.246094 184.046875 245.707031 184.3125 246.140625 C 173.800781 249.84375 162.503906 251.875 150.726562 251.875 M 49.578125 150.722656 C 49.578125 136.058594 52.726562 122.136719 58.339844 109.558594 L 106.585938 241.753906 C 72.84375 225.359375 49.578125 190.757812 49.578125 150.722656 M 150.726562 38.226562 C 88.691406 38.226562 38.226562 88.691406 38.226562 150.722656 C 38.226562 212.753906 88.691406 263.226562 150.726562 263.226562 C 212.757812 263.226562 263.226562 212.753906 263.226562 150.722656 C 263.226562 88.691406 212.757812 38.226562 150.726562 38.226562 "/>
</g>
</svg>
